<svg xmlns="http://www.w3.org/2000/svg" version="1.1" xmlns:xlink="http://www.w3.org/1999/xlink" xmlns:svgjs="http://svgjs.dev/svgjs" width="1000" height="817" viewBox="0 0 1000 817"><g transform="matrix(1,0,0,1,0.7097248925916233,0.3307692307691923)"><svg viewBox="0 0 302 247" data-background-color="#ffffff" preserveAspectRatio="xMidYMid meet" height="817" width="1000" xmlns="http://www.w3.org/2000/svg" xmlns:xlink="http://www.w3.org/1999/xlink"><g id="tight-bounds" transform="matrix(1,0,0,1,-0.2143369175626617,-0.09999999999999432)"><svg viewBox="0 0 302.4286738351253 247.2" height="247.2" width="302.4286738351253"><g><svg viewBox="0 0 302.4286738351254 247.20000000000002" height="247.2" width="302.4286738351253"><g><svg viewBox="0 0 302.4286738351254 247.20000000000002" height="247.20000000000002" width="302.4286738351254"><g id="textblocktransform"><svg viewBox="0 0 302.4286738351254 247.20000000000002" height="247.20000000000002" width="302.4286738351254" id="textblock"><g><svg viewBox="0 0 302.4286738351254 247.20000000000002" height="247.20000000000002" width="302.4286738351254"><g transform="matrix(1,0,0,1,0,0)"><svg width="302.4286738351254" viewBox="0.9 -38.65 51.2 41.85" height="247.20000000000002" data-palette-color="#0718c4"><path d="M33.2-22.25L33.2-22.25Q34.35-22.25 34.35-20.8L34.35-20.8Q34.35-19.25 33.1-17.9L33.1-17.9Q30.9-15.45 29.05-11.75L29.05-11.75Q26.25-6.15 26.25-1.65L26.25-1.65Q26.25 0.1 26.88 0.9 27.5 1.7 28.3 1.7L28.3 1.7Q30.7 1.7 33.9-2.2L33.9-2.2Q36.75-5.85 38.25-9.3L38.25-9.3Q38.65-10.1 39.05-10 39.45-9.9 39.1-9.1L39.1-9.1Q37.05-4.55 34.45-1.1L34.45-1.1Q33.1 0.75 31.1 1.98 29.1 3.2 27.13 3.2 25.15 3.2 24.15 1.63 23.15 0.05 23.15-2.1 23.15-4.25 23.68-6.35 24.2-8.45 25.05-9.6L25.05-9.6Q20-3.55 14.3 0.1L14.3 0.1Q11.3 1.95 7.65 2.3L7.65 2.3Q7.3 2.35 6.48 2.35 5.65 2.35 4.5 1.75L4.5 1.75Q0.9 0.25 0.9-5.58 0.9-11.4 4.7-18.2L4.7-18.2Q6.7-21.8 9.1-24.55L9.1-24.55Q5.75-26.15 4.1-28L4.1-28Q2.9-29.35 2.9-31.25 2.9-33.15 3.65-33.65L3.65-33.65Q4.15-34.3 4.55-33.9L4.55-33.9Q4.85-33.45 4.58-32.8 4.3-32.15 4.3-31.55L4.3-31.55Q4.3-30.2 5.75-28.55 7.2-26.9 10-25.6L10-25.6Q21.75-38.65 34.4-38.65L34.4-38.65Q38.35-38.65 40.68-36.88 43-35.1 43-32.3L43-32.3Q43-29.25 39.6-26.4L39.6-26.4Q37.9-24.9 34.75-23.8L34.75-23.8Q29.95-22.1 23.33-22.1 16.7-22.1 12.35-23.5L12.35-23.5Q7.3-16.35 5.4-11.63 3.5-6.9 3.5-4.3L3.5-4.3Q3.5-3.75 3.55-3.3L3.55-3.3Q4.15 0.85 7.75 0.85L7.75 0.85Q11.8 0.85 17.15-3.55L17.15-3.55Q20.95-6.75 24.6-11.15 28.25-15.55 30.03-18.9 31.8-22.25 33.2-22.25ZM40.95-32.9L40.95-32.9Q40.95-35.05 39.18-36.2 37.4-37.35 34.3-37.35 31.2-37.35 28.13-36.35 25.05-35.35 22.38-33.4 19.7-31.45 17.63-29.4 15.55-27.35 13.15-24.5L13.15-24.5Q16.9-23.3 22.35-23.3L22.35-23.3Q32.6-23.3 37.3-26.6L37.3-26.6Q40.95-29.15 40.95-32.9ZM42.7-0.95L42.7-0.95Q43.35-0.85 43.6-0.85L43.6-0.85Q45.6-0.85 47.55-3.2L47.55-3.2Q48.6-4.5 51.3-9.75L51.3-9.75Q51.4-10 51.65-10L51.65-10Q52.1-10.05 52.1-9.65L52.1-9.65Q52.1-9.55 51.87-9.08 51.65-8.6 51.45-8.13 51.25-7.65 50.8-6.75 50.35-5.85 50.02-5.3 49.7-4.75 49.2-3.95 48.7-3.15 48.2-2.7L48.2-2.7 47.15-1.6Q46.3-0.75 45.15-0.4L45.15-0.4Q43.3 0.2 41.55-0.3L41.55-0.3Q40.4 0.2 39.5 0.2L39.5 0.2Q35.95 0.2 35.2-2.6L35.2-2.6Q35.05-3.25 35.05-4.17 35.05-5.1 35.67-5.95 36.3-6.8 37-6.85L37-6.85Q39.55-11.7 41.35-15.6L41.35-15.6Q43.35-19.85 46-19.85L46-19.85Q46.7-19.85 47.37-19.53 48.05-19.2 47.87-18.8 47.7-18.4 47.15-18.65 46.6-18.9 46.2-18.9 45.8-18.9 45.5-18.75L45.5-18.75Q43.8-17.95 43.8-15.3L43.8-15.3Q43.8-13.9 44.2-13 44.6-12.1 45.1-11.05L45.1-11.05Q46.25-8.45 46.25-6.8L46.25-6.8Q46.25-5.15 45.2-3.55 44.15-1.95 42.7-0.95ZM41-1.3L41-1.3Q43.2-3 43.2-6.8L43.2-6.8Q43.2-8.35 42.85-11.05 42.5-13.75 42.5-14.7 42.5-15.65 42.55-16L42.55-16Q38.75-8.4 37.85-6.75L37.85-6.75Q38.9-6.75 38.9-5.25L38.9-5.25Q38.9-2.3 41-1.3ZM37.25-2.65L37.25-2.65Q37.25-2.35 37.3-2L37.3-2Q37.7-0.65 39.15-0.65L39.15-0.65Q39.75-0.65 40.15-0.85L40.15-0.85Q38.3-2 38.15-4.6L38.15-4.6Q37.25-3.7 37.25-2.65Z" opacity="1" transform="matrix(1,0,0,1,0,0)" fill="#0718c4" class="wordmark-text-0" data-fill-palette-color="primary" id="text-0"></path></svg></g></svg></g></svg></g></svg></g></svg></g><defs></defs></svg><rect width="302.4286738351253" height="247.2" fill="none" stroke="none" visibility="hidden"></rect></g></svg></g></svg>